{
	"asset":{
		"generator":"Khronos glTF Blender I/O v4.4.55",
		"version":"2.0"
	},
	"scene":0,
	"scenes":[
		{
			"name":"Scene",
			"nodes":[
				0,
				1
			]
		}
	],
	"nodes":[
		{
			"name":"Empty",
			"rotation":[
				-0.5,
				-0.5000000596046448,
				-0.5,
				0.4999999403953552
			],
			"scale":[
				3,
				1,
				3
			],
			"translation":[
				0,
				7.519999980926514,
				0
			]
		},
		{
			"mesh":0,
			"name":"Cube",
			"scale":[
				0.10000000149011612,
				0.6899996399879456,
				0.15000000596046448
			],
			"translation":[
				0,
				2.6733627319335938,
				-0.05264255404472351
			]
		}
	],
	"meshes":[
		{
			"name":"Cube.003",
			"primitives":[
				{
					"attributes":{
						"POSITION":0,
						"NORMAL":1,
						"TEXCOORD_0":2
					},
					"indices":3
				}
			]
		}
	],
	"accessors":[
		{
			"bufferView":0,
			"componentType":5126,
			"count":393,
			"max":[
				1.4440571069717407,
				17.68675422668457,
				0.006917828693985939
			],
			"min":[
				-0.0035076141357421875,
				-3.734586238861084,
				-7.596856117248535
			],
			"type":"VEC3"
		},
		{
			"bufferView":1,
			"componentType":5126,
			"count":393,
			"type":"VEC3"
		},
		{
			"bufferView":2,
			"componentType":5126,
			"count":393,
			"type":"VEC2"
		},
		{
			"bufferView":3,
			"componentType":5123,
			"count":786,
			"type":"SCALAR"
		}
	],
	"bufferViews":[
		{
			"buffer":0,
			"byteLength":4716,
			"byteOffset":0,
			"target":34962
		},
		{
			"buffer":0,
			"byteLength":4716,
			"byteOffset":4716,
			"target":34962
		},
		{
			"buffer":0,
			"byteLength":3144,
			"byteOffset":9432,
			"target":34962
		},
		{
			"buffer":0,
			"byteLength":1572,
			"byteOffset":12576,
			"target":34963
		}
	],
	"buffers":[
		{
			"byteLength":14148,
			"uri":"galatingrailord.bin"
		}
	]
}
